<?xml version="1.0" encoding="iso-8859-1"?>
<!-- Uploaded to: SVG Repo, www.svgrepo.com, Generator: SVG Repo Mixer Tools -->
<svg fill="#000000" height="800px" width="800px" version="1.1" id="Layer_1" xmlns="http://www.w3.org/2000/svg" xmlns:xlink="http://www.w3.org/1999/xlink" 
	 viewBox="0 0 512.001 512.001" xml:space="preserve">
<g>
	<g>
		<path d="M427.65,238.173l-8.978-8.978c-2.164-2.164-5.101-3.381-8.162-3.381c-3.061,0-5.998,1.217-8.162,3.381l-57.503,57.503
			l12.304-139.445c7.404,4.6,15.846,7.795,25.058,7.795c31.281,0,53.807-36.726,56.273-40.913c2.129-3.614,2.129-8.099,0-11.713
			c-2.466-4.188-24.991-40.913-56.273-40.913c-1.3,0-2.578,0.085-3.846,0.207c0.121-1.269,0.207-2.546,0.207-3.846
			c0-31.282-36.726-53.807-40.913-56.273c-3.614-2.127-8.099-2.129-11.713,0c-4.188,2.466-40.913,24.991-40.913,56.273
			c0,7.644,2.202,14.76,5.578,21.194h-80.293V36.872c0-6.375-5.168-11.543-11.543-11.543s-11.543,5.168-11.543,11.543v42.192H48.898
			c-3.238,0-6.327,1.36-8.513,3.748c-2.186,2.388-3.27,5.585-2.985,8.81l32.321,366.301c0.526,5.958,5.516,10.528,11.498,10.528
			h122.837c0.053,0,0.104-0.007,0.157-0.008c30.814,29.034,70.397,43.558,109.983,43.558c41.088,0,82.175-15.64,113.455-46.918
			c30.305-30.305,46.995-70.598,46.995-113.455C474.644,308.771,457.954,268.478,427.65,238.173z M381.871,282.317l3.906,3.905
			c35.092,38.362,33.786,97.163-3.02,133.968c-36.806,36.806-95.607,38.113-133.969,3.02l-3.904-3.905l44.744-44.745v46.619
			c0,6.375,5.168,11.543,11.543,11.543s11.543-5.168,11.543-11.543v-54.707l17.532,17.533c2.254,2.254,5.208,3.381,8.162,3.381
			c2.954,0,5.909-1.128,8.162-3.381c4.508-4.508,4.509-11.817,0-16.324l-17.533-17.533h54.707c6.375,0,11.543-5.168,11.543-11.543
			c0-6.375-5.168-11.543-11.543-11.543h-46.619L381.871,282.317z M360.317,96.147c6.532-6.277,14.338-11.552,21.888-11.552
			c12.371,0,25.436,14.16,32.44,23.683c-7.01,9.532-20.072,23.685-32.44,23.685c-12.371,0-25.438-14.16-32.441-23.683
			c2.175-2.956,4.931-6.357,8.07-9.643C358.664,97.837,359.493,97,360.317,96.147z M331.812,25.415
			c9.526,6.972,23.666,19.994,23.666,32.453c0,7.548-5.273,15.351-11.545,21.882c-0.858,0.83-1.698,1.662-2.503,2.497
			c-3.284,3.135-6.682,5.89-9.634,8.062c-9.532-7.01-23.685-20.072-23.685-32.441C308.111,45.49,322.289,32.415,331.812,25.415z
			 M210.31,102.149h99.276c7.705,6.748,14.656,10.992,16.349,11.989c0.88,1.494,4.306,7.105,9.749,13.709l-16.218,183.801
			c-0.013,0.149-0.009,0.295-0.016,0.444l-28.449,28.448l13.564-165.199c0.264-3.215-0.829-6.394-3.015-8.766
			c-2.185-2.372-5.264-3.723-8.489-3.723H210.31V102.149z M198.767,320.182c6.375,0,11.543-5.168,11.543-11.543V185.938h70.221
			l-14.766,179.837l-31.107,31.107h-98.414l-17.32-210.946h68.301v122.7C187.224,315.014,192.391,320.182,198.767,320.182z
			 M191.761,439.78c-1.593,1.594-2.612,3.539-3.079,5.586H91.788L61.504,102.149h125.719v60.703h-80.831
			c-3.225,0-6.304,1.349-8.489,3.723c-2.186,2.372-3.279,5.551-3.015,8.766l19.216,234.032c0.492,5.989,5.496,10.599,11.504,10.599
			h85.961L191.761,439.78z M411.325,448.757c-26.782,26.782-61.95,40.171-97.131,40.169c-35.172-0.003-70.354-13.393-97.131-40.168
			l-0.816-0.817l12.312-12.312l4.081,4.082c0.114,0.115,0.232,0.227,0.351,0.337c22.21,20.415,50.95,31.576,81.166,31.576
			c0.805,0,1.611-0.008,2.418-0.024c31.192-0.614,60.493-13.074,82.505-35.085c22.01-22.012,34.471-51.313,35.085-82.504
			c0.612-31.098-10.593-60.784-31.552-83.585c-0.11-0.12-0.222-0.237-0.337-0.351l-4.082-4.082l12.312-12.312l0.816,0.817
			c25.945,25.944,40.234,60.44,40.234,97.131C451.558,388.319,437.27,422.813,411.325,448.757z"/>
	</g>
</g>
<g>
	<g>
		<path d="M375.123,398.976c-0.15-0.727-0.369-1.454-0.658-2.159c-0.289-0.693-0.646-1.362-1.062-1.985
			c-0.416-0.635-0.9-1.224-1.431-1.755c-0.531-0.531-1.131-1.016-1.755-1.443c-0.635-0.416-1.304-0.762-1.997-1.05
			c-0.693-0.289-1.42-0.519-2.159-0.658c-1.489-0.3-3.024-0.3-4.513,0c-0.739,0.138-1.466,0.369-2.159,0.658
			c-0.693,0.289-1.362,0.635-1.997,1.05c-0.623,0.427-1.212,0.912-1.755,1.443c-0.531,0.531-1.016,1.12-1.431,1.755
			c-0.416,0.623-0.773,1.293-1.062,1.985c-0.289,0.704-0.508,1.431-0.658,2.159c-0.15,0.75-0.219,1.512-0.219,2.262
			c0,3.036,1.224,6.014,3.371,8.161c0.542,0.531,1.131,1.016,1.755,1.431c0.635,0.416,1.304,0.773,1.997,1.062
			c0.693,0.289,1.42,0.508,2.159,0.658c0.75,0.15,1.501,0.231,2.262,0.231c0.75,0,1.501-0.081,2.251-0.231
			c0.739-0.15,1.466-0.369,2.159-0.658c0.693-0.289,1.362-0.646,1.997-1.062c0.623-0.416,1.224-0.9,1.755-1.431
			c2.147-2.147,3.382-5.125,3.382-8.161C375.354,400.489,375.273,399.727,375.123,398.976z"/>
	</g>
</g>
</svg>