<?xml version="1.0" encoding="iso-8859-1"?>
<!-- Uploaded to: SVG Repo, www.svgrepo.com, Generator: SVG Repo Mixer Tools -->
<svg fill="#000000" height="800px" width="800px" version="1.1" id="Capa_1" xmlns="http://www.w3.org/2000/svg" xmlns:xlink="http://www.w3.org/1999/xlink" 
	 viewBox="0 0 470.001 470.001" xml:space="preserve">
<g>
	<path d="M384.071,85.363c-6.295-2.011-12.903-3.03-19.64-3.03c-27.037,0-54.271,15.885-74.72,43.583
		c-1.099,1.487-1.608,3.329-1.432,5.171l5.265,54.856c0.143,1.482,0.723,2.889,1.667,4.04
		c22.866,27.876,35.459,63.117,35.459,99.232c0,3.282-0.108,6.663-0.322,10.046c-0.136,2.154,0.663,4.263,2.191,5.785
		c1.411,1.405,3.316,2.188,5.294,2.188c0.166,0,0.333-0.006,0.5-0.017c38.704-2.587,76.513-38.132,91.943-86.439
		c9.457-29.604,9.65-60.131,0.545-85.956C421.976,109.731,405.372,92.167,384.071,85.363z M415.988,216.213
		c-12.445,38.96-40.581,68.449-70.328,74.859c0.007-0.622,0.011-1.241,0.011-1.857c0-38.804-13.269-76.689-37.41-106.951
		l-4.77-49.701c17.143-22.113,39.754-35.23,60.94-35.23c5.186,0,10.257,0.78,15.075,2.319c16.721,5.341,29.921,19.603,37.169,40.158
		C424.701,162.57,424.457,189.704,415.988,216.213z"/>
	<path d="M459.115,124.846c-12.043-34.158-35.452-58.329-65.916-68.062c-9.269-2.96-18.945-4.461-28.762-4.461
		c-22.752,0-45.908,8.131-66.428,23.13l-2.427-25.287c-0.317-3.309-2.775-6.014-6.039-6.646L65.646,0.137
		c-2.072-0.402-4.224,0.089-5.917,1.355c-1.693,1.266-2.773,3.188-2.976,5.291l-16.841,175.48
		c-24.142,30.262-37.41,68.147-37.41,106.951c0,57.282,28.69,110.595,75.736,142.329c-4.106,4.078-6.651,9.726-6.651,15.956
		c0,12.406,10.094,22.5,22.5,22.5h160c12.406,0,22.5-10.094,22.5-22.5c0-6.232-2.547-11.882-6.655-15.96
		c33.142-22.389,57.737-55.931,68.921-94.312c23.149-1.207,46.065-10.499,66.586-27.058c24.132-19.472,43.103-47.977,53.417-80.265
		C470.289,194.11,470.382,156.798,459.115,124.846z M444.566,225.342c-9.432,29.524-26.673,55.505-48.548,73.155
		c-19.348,15.612-40.9,23.865-62.328,23.866l-0.56-0.008c-3.465,0-6.459,2.324-7.306,5.647
		c-10.376,40.716-37.208,75.958-73.744,96.997H124.087c-4.143,0-7.5,3.357-7.5,7.5s3.357,7.5,7.5,7.5h129.998
		c4.138,0,7.502,3.364,7.502,7.5s-3.364,7.5-7.5,7.5h-160c-4.136,0-7.5-3.364-7.5-7.5s3.364-7.5,7.5-7.5
		c3.413,0,6.396-2.305,7.258-5.607c0.86-3.304-0.617-6.771-3.596-8.438c-49.498-27.694-80.247-80.09-80.247-136.74
		c0-36.115,12.593-71.356,35.459-99.232c0.944-1.151,1.524-2.558,1.667-4.04L70.896,16.434L281.188,57.18l3.228,33.63
		c0.271,2.819,2.107,5.246,4.748,6.273c2.636,1.025,5.632,0.478,7.738-1.418c20.285-18.276,44.27-28.342,67.536-28.342
		c8.266,0,16.407,1.262,24.198,3.75c25.882,8.269,45.889,29.137,56.333,58.761C455.155,158.722,455.012,192.641,444.566,225.342z"/>
	<path d="M149.699,243.936c3.005,10.855,8.747,21.105,17.264,29.622c12.75,12.749,29.7,19.771,47.73,19.771
		c18.029,0,34.979-7.021,47.729-19.771c1.406-1.407,2.196-3.314,2.196-5.304s-0.79-3.896-2.196-5.304l-84.853-84.853
		c-2.93-2.928-7.678-2.928-10.607,0c-17.471,17.472-23.33,42.215-17.604,64.577c0.037,0.208,0.078,0.416,0.134,0.624
		C149.552,243.517,149.623,243.728,149.699,243.936z M166.454,246.519l37.633-10.084l-10.091,37.659
		c-6.056-2.598-11.626-6.344-16.426-11.144C172.704,258.085,169.006,252.49,166.454,246.519z M214.693,278.329
		c-2.09,0-4.158-0.136-6.203-0.375l10.085-37.636l27.563,27.564C237.111,274.662,226.185,278.329,214.693,278.329z M172.645,194.386
		l27.56,27.56l-37.616,10.079C161.047,218.951,164.395,205.404,172.645,194.386z"/>
	<path d="M103.323,241.738c-17.471,17.472-23.33,42.215-17.604,64.577c0.037,0.208,0.078,0.416,0.134,0.624
		c0.059,0.219,0.13,0.431,0.206,0.64c3.005,10.854,8.747,21.103,17.263,29.619c12.75,12.749,29.7,19.77,47.73,19.77
		c18.029,0,34.979-7.021,47.729-19.77c2.929-2.93,2.929-7.678,0-10.607l-84.853-84.853
		C111.001,238.81,106.253,238.81,103.323,241.738z M109.005,258.026l27.56,27.56l-37.616,10.079
		C97.408,282.591,100.755,269.044,109.005,258.026z M102.814,310.159l37.633-10.084l-10.091,37.659
		c-6.056-2.598-11.626-6.343-16.426-11.143C109.065,321.725,105.367,316.13,102.814,310.159z M151.054,341.967
		c-2.09,0-4.158-0.136-6.202-0.375l10.084-37.635l27.563,27.564C173.472,338.301,162.545,341.967,151.054,341.967z"/>
	<path d="M279.268,194.196l-6.194-64.543c-0.369-3.847-3.602-6.783-7.466-6.783H82.565c-3.864,0-7.097,2.937-7.466,6.783
		l-6.193,64.543l-4.347,5.299c-17.304,21.095-28.077,46.642-31.157,73.878c-0.466,4.116,2.493,7.83,6.609,8.295
		c4.111,0.471,7.829-2.494,8.295-6.609c2.755-24.356,12.385-47.196,27.851-66.051l5.795-7.065c0.944-1.151,1.524-2.558,1.667-4.039
		l5.761-60.033h169.414l5.762,60.033c0.143,1.482,0.723,2.889,1.667,4.04l5.795,7.064c18.478,22.527,28.654,51.013,28.654,80.208
		c0,26.301-7.981,51.507-23.083,72.894c-9.256,13.108-20.664,24.165-33.933,32.892H104.518
		c-13.271-8.728-24.679-19.784-33.933-32.892c-12.248-17.346-19.957-37.65-22.294-58.72c-0.456-4.117-4.159-7.085-8.28-6.628
		c-4.117,0.456-7.085,4.164-6.628,8.28c2.615,23.583,11.242,46.309,24.948,65.72c10.809,15.308,24.253,28.117,39.961,38.074
		c1.201,0.761,2.594,1.165,4.016,1.165h143.558c1.422,0,2.814-0.404,4.016-1.165c15.706-9.955,29.15-22.766,39.961-38.074
		c16.897-23.933,25.829-52.13,25.829-81.546c0-32.655-11.385-64.519-32.057-89.722L279.268,194.196z"/>
</g>
</svg>