<?xml version="1.0" encoding="iso-8859-1"?>
<!-- Uploaded to: SVG Repo, www.svgrepo.com, Generator: SVG Repo Mixer Tools -->
<svg fill="#000000" height="800px" width="800px" version="1.1" id="Layer_1" xmlns="http://www.w3.org/2000/svg" xmlns:xlink="http://www.w3.org/1999/xlink" 
	 viewBox="0 0 512.001 512.001" xml:space="preserve">
<g>
	<g>
		<g>
			<circle cx="298.403" cy="120.278" r="41.826"/>
			<path d="M298.409,57.772c9.109,0,16.493-7.384,16.493-16.493V16.493C314.902,7.384,307.517,0,298.409,0
				s-16.493,7.384-16.493,16.493v24.786C281.916,50.387,289.299,57.772,298.409,57.772z"/>
			<path d="M354.274,80.911c4.221,0,8.442-1.61,11.662-4.831l17.526-17.527c6.441-6.441,6.441-16.883,0-23.324
				c-6.44-6.44-16.883-6.441-23.324,0l-17.525,17.527c-6.441,6.441-6.441,16.883,0,23.324
				C345.832,79.302,350.053,80.911,354.274,80.911z"/>
			<path d="M360.921,120.283c0,9.109,7.384,16.493,16.493,16.493h24.785c9.109,0,16.493-7.384,16.493-16.493
				c0-9.109-7.385-16.493-16.493-16.493h-24.785C368.305,103.79,360.921,111.174,360.921,120.283z"/>
			<path d="M342.612,164.485c-6.441,6.441-6.441,16.883,0,23.324l17.525,17.525c3.221,3.221,7.442,4.831,11.662,4.831
				c4.22,0,8.442-1.61,11.662-4.831c6.441-6.441,6.441-16.883,0-23.324l-17.525-17.525
				C359.496,158.043,349.052,158.043,342.612,164.485z"/>
			<path d="M281.916,199.287v24.786c0,9.109,7.384,16.493,16.493,16.493s16.493-7.384,16.493-16.493v-24.786
				c0-9.109-7.384-16.493-16.493-16.493S281.916,190.179,281.916,199.287z"/>
			<path d="M230.883,164.485l-17.525,17.525c-6.44,6.441-6.439,16.883,0.001,23.324c3.221,3.221,7.442,4.83,11.662,4.83
				c4.22,0,8.442-1.611,11.663-4.831l17.524-17.525c6.441-6.441,6.44-16.883,0-23.324
				C247.768,158.044,237.324,158.044,230.883,164.485z"/>
			<path d="M194.621,136.776h24.785c9.109,0,16.493-7.384,16.493-16.493c0-9.109-7.384-16.493-16.493-16.493h-24.785
				c-9.109,0-16.493,7.384-16.493,16.493C178.128,129.392,185.512,136.776,194.621,136.776z"/>
			<path d="M230.882,76.08c3.222,3.222,7.443,4.831,11.663,4.831c4.22,0,8.442-1.61,11.662-4.83
				c6.44-6.44,6.441-16.883,0.001-23.324L236.683,35.23c-6.441-6.441-16.883-6.442-23.326-0.001
				c-6.44,6.44-6.441,16.883-0.001,23.324L230.882,76.08z"/>
			<path d="M471.287,479.876L42.226,335.043c-8.635-2.914-17.988,1.721-20.902,10.352s1.721,17.988,10.351,20.902l73.907,24.948
				l-48.326,96.898c-4.065,8.151-0.754,18.054,7.399,22.12c2.364,1.179,4.874,1.737,7.348,1.737c6.056,0,11.886-3.348,14.772-9.136
				l50.356-100.97L460.737,511.13c1.75,0.59,3.528,0.871,5.278,0.871c6.881,0,13.302-4.341,15.624-11.223
				C484.552,492.148,479.918,482.79,471.287,479.876z"/>
			<path d="M79.642,320.045l14.119,4.779c14.495,4.909,30.222-2.863,35.131-17.357l4.781-14.118
				c4.908-14.495-2.863-30.224-17.358-35.133l-14.117-4.779c-14.495-4.909-30.224,2.863-35.131,17.358l-4.781,14.115
				C57.377,299.407,65.148,315.135,79.642,320.045z"/>
			<path d="M485.675,383.639l-72.353-94.455c-2.116-2.762-4.639-5.028-7.42-6.78c-8.122-5.158-18.662-6.08-27.918-1.506
				l-79.27,39.164c-0.685-0.278-1.377-0.546-2.087-0.787l-100.58-34.059c-18.394-6.23-38.353,3.632-44.582,22.027
				c-6.229,18.391,3.634,38.351,22.027,44.579l100.582,34.058c0.185,0.063,0.368,0.114,0.553,0.172
				c1.97,0.681,4.014,1.142,6.095,1.381c10.503,1.407,20.922-2.053,28.479-9.012l73.065-36.101l58.185,75.959
				c9.565,12.487,27.443,14.855,39.931,5.291C492.871,414.004,495.242,396.128,485.675,383.639z"/>
		</g>
	</g>
</g>
</svg>